<?xml version="1.0" encoding="UTF-8" standalone="no"?>
<!DOCTYPE svg PUBLIC "-//W3C//DTD SVG 1.1//EN" "http://www.w3.org/Graphics/SVG/1.1/DTD/svg11.dtd">
<svg xmlns="http://www.w3.org/2000/svg" xmlns:xlink="http://www.w3.org/1999/xlink" version="1.1" width="375pt" height="375pt" viewBox="0 0 375 375">
<g enable-background="new">
<clipPath id="cp0">
<path transform="matrix(.24,0,0,.24,0,0)" d="M 0 0 L 1562.5 0 L 1562.5 1593.75 L 0 1593.75 Z " fill-rule="evenodd"/>
</clipPath>
<g clip-path="url(#cp0)">
<path transform="matrix(.75,0,0,.75,0,0)" d="M 0 0 L 500 0 L 500 510 L 0 510 Z " fill="#ffffff"/>
</g>
<clipPath id="cp1">
<path transform="matrix(.24,0,0,.24,0,0)" d="M 0 0 L 1562.5 0 L 1562.5 1562.5 L 0 1562.5 Z " fill-rule="evenodd"/>
</clipPath>
<g clip-path="url(#cp1)">
<path transform="matrix(.75,0,0,.75,0,0)" d="M 0 0 L 500 0 L 500 500 L 0 500 Z " fill="#ffffff"/>
</g>
<clipPath id="cp2">
<path transform="matrix(.24,0,0,.24,0,0)" d="M 0 0 L 1562.5 0 L 1562.5 1562.5 L 0 1562.5 Z " fill-rule="evenodd"/>
</clipPath>
<g clip-path="url(#cp2)">
<path transform="matrix(.75,0,0,.75,0,0)" d="M 0 0 L 500 0 L 500 500 L 0 500 Z "/>
</g>
<clipPath id="cp3">
<path transform="matrix(.24,0,0,.24,0,0)" d="M 0 0 L 1562.5 0 L 1562.5 1593.75 L 0 1593.75 Z "/>
</clipPath>
<g clip-path="url(#cp3)">
<clipPath id="cp4">
<path transform="matrix(.24,0,0,.24,0,0)" d="M 0 0 L 1562.5 0 L 1562.5 1562.5 L 0 1562.5 Z "/>
</clipPath>
<g clip-path="url(#cp4)">
<clipPath id="cp5">
<path transform="matrix(.24,0,0,.24,0,0)" d="M 0 0 L 1562.5 0 L 1562.5 1562.5 L 0 1562.5 Z "/>
</clipPath>
<g clip-path="url(#cp5)">
<clipPath id="cp6">
<path transform="matrix(.24,0,0,.24,0,0)" d="M 404.77287 1163.9502 L 1167.1223 401.6007 L 1547.1923 781.6706 L 784.8428 1544.02 L 404.77287 1163.9502 Z "/>
</clipPath>
<g clip-path="url(#cp6)">
<clipPath id="cp7">
<path transform="matrix(.24,0,0,.24,0,0)" d="M 404.77287 1163.9502 L 1167.1223 401.6007 L 1547.1923 781.6706 L 784.8428 1544.02 L 404.77287 1163.9502 Z "/>
</clipPath>
<g clip-path="url(#cp7)">
<path transform="matrix(1.5452329,-1.5452329,1.5408238,1.5408238,97.22689,279.26664)" d="M 118.3 0 C 118.3 32.7 91.8 59.2 59.100004 59.2 C 26.400002 59.2 0 32.7 0 0 L 118.3 0 Z " fill="#ffffff"/>
</g>
</g>
</g>
</g>
</g>
<clipPath id="cp8">
<path transform="matrix(.24,0,0,.24,0,0)" d="M 0 0 L 1562.5 0 L 1562.5 1593.75 L 0 1593.75 Z "/>
</clipPath>
<g clip-path="url(#cp8)">
<clipPath id="cp9">
<path transform="matrix(.24,0,0,.24,0,0)" d="M 0 0 L 1562.5 0 L 1562.5 1562.5 L 0 1562.5 Z "/>
</clipPath>
<g clip-path="url(#cp9)">
<clipPath id="cp10">
<path transform="matrix(.24,0,0,.24,0,0)" d="M 0 0 L 1562.5 0 L 1562.5 1562.5 L 0 1562.5 Z "/>
</clipPath>
<g clip-path="url(#cp10)">
<clipPath id="cp11">
<path transform="matrix(.24,0,0,.24,0,0)" d="M 1157.7146 398.51899 L 395.3651 1160.8684 L 15.295166 780.7986 L 777.6447 18.449097 L 1157.7146 398.51899 Z "/>
</clipPath>
<g clip-path="url(#cp11)">
<clipPath id="cp12">
<path transform="matrix(.24,0,0,.24,0,0)" d="M 1157.7146 398.51899 L 395.3651 1160.8684 L 15.295166 780.7986 L 777.6447 18.449097 L 1157.7146 398.51899 Z "/>
</clipPath>
<g clip-path="url(#cp12)">
<path transform="matrix(-1.5452329,1.5452329,-1.5408238,-1.5408238,277.77009,95.72596)" d="M 118.3 0 C 118.3 32.7 91.8 59.2 59.100004 59.2 C 26.400002 59.2 0 32.7 0 0 L 118.3 0 Z " fill="#d40000"/>
</g>
</g>
</g>
</g>
</g>
<clipPath id="cp13">
<path transform="matrix(.24,0,0,.24,0,0)" d="M 0 0 L 1562.5 0 L 1562.5 1593.75 L 0 1593.75 Z "/>
</clipPath>
<g clip-path="url(#cp13)">
<clipPath id="cp14">
<path transform="matrix(.24,0,0,.24,0,0)" d="M 0 0 L 1562.5 0 L 1562.5 1562.5 L 0 1562.5 Z "/>
</clipPath>
<g clip-path="url(#cp14)">
<clipPath id="cp15">
<path transform="matrix(.24,0,0,.24,0,0)" d="M 0 0 L 1562.5 0 L 1562.5 1562.5 L 0 1562.5 Z "/>
</clipPath>
<g clip-path="url(#cp15)">
<clipPath id="cp16">
<path transform="matrix(.24,0,0,.24,0,0)" d="M 375.75856 380.5719 L 1187.7661 380.5719 L 1187.7661 1192.5795 L 375.75856 1192.5795 Z "/>
</clipPath>
<g clip-path="url(#cp16)">
<clipPath id="cp17">
<path transform="matrix(.24,0,0,.24,0,0)" d="M 781.7623 380.5719 C 557.5326 380.5719 375.75856 562.34597 375.75856 786.5757 C 375.75856 1010.80538 557.5326 1192.5795 781.7623 1192.5795 C 1005.992 1192.5795 1187.7661 1010.80538 1187.7661 786.5757 C 1187.7661 562.34597 1005.992 380.5719 781.7623 380.5719 "/>
</clipPath>
<g clip-path="url(#cp17)">
<path transform="matrix(.5075047,0,0,.5075047,90.182048,91.33726)" d="M 0 0 L 384 0 L 384 384 L 0 384 Z "/>
</g>
</g>
</g>
</g>
</g>
<clipPath id="cp18">
<path transform="matrix(.24,0,0,.24,0,0)" d="M 0 0 L 1562.5 0 L 1562.5 1562.5 L 0 1562.5 Z " fill-rule="evenodd"/>
</clipPath>
<g clip-path="url(#cp18)">
<g id="Layer-1" data-name="P">
</g>
<symbol id="font_13_a">
<path d="M .44677735 .020507813 L .44677735 .49609376 C .44677735 .50423178 .44514976 .51171877 .44189454 .5185547 C .43896485 .5253906 .43277995 .5288086 .42333985 .5288086 C .41389976 .5288086 .4073893 .5253906 .4038086 .5185547 C .40055339 .51171877 .39892579 .50423178 .39892579 .49609376 L .39892579 .020507813 C .39892579 .014973958 .39794923 .0100911459 .3959961 .005859375 C .3943685 .001953125 .39029948 0 .38378907 0 L .2368164 0 C .23323567 0 .22998047 .0021158856 .22705078 .0063476564 C .22444661 .010579427 .22314453 .0152994799 .22314453 .020507813 L .22314453 .49951173 C .22281902 .5069987 .22102864 .5136719 .21777344 .51953127 C .21451824 .5257161 .2084961 .5288086 .19970703 .5288086 C .19026692 .5288086 .18391927 .5253906 .18066406 .5185547 C .17740886 .51171877 .17578125 .50423178 .17578125 .49609376 L .17578125 .020507813 C .17578125 .014973958 .17480469 .0100911459 .17285156 .005859375 C .17089844 .001953125 .16666667 0 .16015625 0 L .013183594 0 C .009602864 0 .0065104167 .0021158856 .00390625 .0063476564 C .0013020834 .010579427 0 .0152994799 0 .020507813 L 0 .50634768 C 0 .5314128 .0053710939 .5548503 .016113282 .57666018 C .026855469 .5987956 .041503908 .61816409 .060058595 .6347656 C .07861328 .6513672 .09977213 .6642253 .123535159 .67333987 C .1476237 .68277999 .17285156 .6875 .19921875 .6875 C .21940105 .6875 .2389323 .6847331 .2578125 .6791992 C .27701823 .67366537 .29475913 .6656901 .31103517 .65527346 C .3273112 .6656901 .3448893 .67366537 .36376954 .6791992 C .38297526 .6847331 .40266929 .6875 .42285157 .6875 C .44921876 .6875 .47444663 .68277999 .49853517 .67333987 C .5226237 .6642253 .5439453 .6513672 .5625 .6347656 C .5810547 .61816409 .5957031 .5987956 .6064453 .57666018 C .6171875 .5548503 .6225586 .5314128 .6225586 .50634768 L .6225586 .020507813 C .6225586 .0152994799 .62109377 .010579427 .61816409 .0063476564 C .6152344 .0021158856 .6110026 0 .60546877 0 L .4638672 0 C .45898438 0 .45491538 .0021158856 .45166017 .0063476564 C .44840495 .010579427 .44677735 .0152994799 .44677735 .020507813 Z "/>
</symbol>
<symbol id="font_13_1">
<path d="M .3876953 .5136719 L .3876953 .4584961 C .3876953 .45035807 .386556 .4444987 .38427735 .44091798 C .3819987 .43733726 .37727867 .43554688 .3701172 .43554688 L .24023438 .43554688 C .23404949 .43554688 .2298177 .43717448 .22753906 .4404297 C .22526042 .4436849 .2241211 .44873048 .2241211 .4555664 L .2241211 .5083008 C .2241211 .51253256 .22347005 .51708987 .22216797 .52197268 C .22086589 .52685549 .21842449 .5310872 .21484375 .53466799 C .21158855 .5382487 .20686849 .54003909 .2006836 .54003909 C .19222005 .54003909 .18587239 .5369466 .18164063 .5307617 C .17773438 .52457687 .17578125 .5175781 .17578125 .5097656 L .17578125 .19140625 C .17578125 .18326824 .17740886 .17578125 .18066406 .16894531 C .18391927 .16210938 .19059246 .1586914 .2006836 .1586914 C .21207683 .1586914 .21923828 .16210938 .22216797 .16894531 C .22509766 .17578125 .2265625 .18326824 .2265625 .19140625 L .2265625 .2607422 C .2265625 .26822917 .22753906 .27327476 .22949219 .2758789 C .23177083 .2788086 .23600261 .28027345 .2421875 .28027345 L .3725586 .28027345 C .37939454 .28027345 .3841146 .27913413 .38671876 .27685548 C .3893229 .2745768 .390625 .269694 .390625 .26220704 L .390625 .18115235 C .390625 .15185547 .38557945 .1258138 .37548829 .103027347 C .36572267 .080566409 .35205079 .0616862 .33447267 .04638672 C .31722007 .03108724 .29703776 .01953125 .27392579 .01171875 C .2508138 .00390625 .22591146 0 .19921875 0 C .17285156 0 .1476237 .00390625 .123535159 .01171875 C .09977213 .01953125 .07861328 .03108724 .060058595 .04638672 C .041503908 .0616862 .026855469 .080566409 .016113282 .103027347 C .0053710939 .1258138 0 .15185547 0 .18115235 L 0 .5175781 C 0 .5436198 .0047200524 .5675456 .014160156 .58935549 C .023925782 .6114909 .037597658 .6306966 .05517578 .64697268 C .07307943 .6632487 .09423828 .67578127 .118652347 .6845703 C .1430664 .6936849 .16992188 .6982422 .19921875 .6982422 C .23339844 .6982422 .26236979 .6928711 .2861328 .6821289 C .31022135 .6713867 .3297526 .6570638 .34472657 .63916018 C .35970054 .62158206 .37060548 .601888 .3774414 .5800781 C .38427735 .55826827 .3876953 .5361328 .3876953 .5136719 Z "/>
</symbol>
<use xlink:href="#font_13_a" transform="matrix(111.23537,0,0,-111.23537,155.30255,218.91208)" fill="#ffffff"/>
<use xlink:href="#font_13_1" transform="matrix(111.23537,0,0,-111.23537,227.64589,220.1613)" fill="#ffffff"/>
<g id="Layer-1" data-name="P">
</g>
<symbol id="font_13_12">
<path d="M .6225586 .6669922 L .6225586 .18115235 C .6225586 .1476237 .61539718 .1171875 .6010742 .08984375 C .5867513 .0625 .5654297 .040690107 .5371094 .024414063 C .50911459 .0081380209 .4741211 0 .4321289 0 C .4051107 0 .3819987 .0048828127 .36279298 .0146484379 C .34391276 .024739584 .32861329 .0382487 .31689454 .05517578 C .30452476 .0382487 .28857423 .024739584 .26904298 .0146484379 C .24951172 .0048828127 .22623699 0 .19921875 0 C .15494792 0 .118001308 .0081380209 .088378909 .024414063 C .05908203 .040690107 .036946615 .0625 .021972657 .08984375 C .0073242189 .1171875 0 .1476237 0 .18115235 L 0 .6669922 C 0 .6722005 .0013020834 .6769206 .00390625 .68115237 C .0065104167 .6853841 .009602864 .6875 .013183594 .6875 L .16015625 .6875 C .16666667 .6875 .17089844 .6853841 .17285156 .68115237 C .17480469 .6772461 .17578125 .67252609 .17578125 .6669922 L .17578125 .19140625 C .17578125 .18326824 .1772461 .17578125 .18017578 .16894531 C .18343099 .16210938 .18961589 .1586914 .19873047 .1586914 C .20914714 .1586914 .21582031 .16210938 .21875 .16894531 C .22167969 .17578125 .22314453 .18326824 .22314453 .19140625 L .22314453 .6669922 C .22314453 .6722005 .22444661 .6769206 .22705078 .68115237 C .22998047 .6853841 .23323567 .6875 .2368164 .6875 L .38378907 .6875 C .39029948 .6875 .3943685 .6853841 .3959961 .68115237 C .39794923 .6772461 .39892579 .67252609 .39892579 .6669922 L .39892579 .19140625 C .39892579 .18326824 .40039063 .17578125 .4033203 .16894531 C .40625 .16210938 .4129232 .1586914 .42333985 .1586914 C .4337565 .1586914 .44026695 .16210938 .4428711 .16894531 C .44547526 .17578125 .44677735 .18326824 .44677735 .19140625 L .44677735 .6669922 C .44677735 .67252609 .44840495 .6772461 .45166017 .68115237 C .45491538 .6853841 .45898438 .6875 .4638672 .6875 L .60546877 .6875 C .6110026 .6875 .6152344 .6853841 .61816409 .68115237 C .62109377 .6769206 .6225586 .6722005 .6225586 .6669922 Z "/>
</symbol>
<use xlink:href="#font_13_12" transform="matrix(111.23537,0,0,-111.23537,105.3147,220.1613)" fill="#d40000"/>
<g id="Layer-1" data-name="P">
</g>
<symbol id="font_14_65">
<path d="M .611 .064666669 C .611 .058 .60833337 .05333333 .603 .050666669 C .59833338 .048666669 .5933333 .048666669 .588 .050666669 C .5833333 .05333333 .5806667 .058 .58 .064666669 L .58 .067666668 C .5793333 .06566667 .579 .063666667 .579 .06166667 C .579 .059666668 .5786667 .05766667 .578 .05566667 C .57666668 .047000003 .573 .040000004 .56700006 .03466667 C .56100007 .030000002 .5543334 .026666666 .547 .024666667 C .535 .015333335 .522 .013333335 .508 .018666668 C .49466668 .024000003 .48533336 .033333336 .48000006 .04666667 C .46733336 .08133333 .45266668 .115 .43600003 .14766667 C .42000006 .181 .40233336 .21366668 .38300003 .24566667 C .36433337 .27700005 .34366668 .3086667 .321 .34066669 C .31700004 .34600006 .31300003 .35133339 .30900003 .35666669 C .30500005 .3626667 .3006667 .36833335 .29600004 .3736667 C .29333339 .35566674 .29033337 .33766667 .28700004 .31966669 C .2836667 .3016667 .28000004 .28400005 .27600003 .26666669 C .27133338 .24466668 .26600004 .22266667 .26000003 .20066667 C .2546667 .17933333 .24833338 .158 .24100003 .13666667 C .2336667 .118 .22566669 .09866667 .21700001 .078666668 C .20833333 .059333337 .19766666 .041333338 .185 .024666667 C .18366666 .022 .182 .021333335 .18 .022666669 C .17066668 .028666668 .16600001 .037 .16600001 .04766667 C .16533335 .045 .16433336 .042 .16300002 .03866667 C .16166668 .036000004 .16033335 .033000005 .15900001 .029666668 C .15566668 .019666667 .14966668 .012000001 .141 .006666667 C .133 .0013333334 .12333334 .00000000007761022 .11200001 .0026666669 C .09733334 .007333334 .08833334 .016666668 .08500001 .030666668 C .079666677 .03466667 .076666679 .040000004 .076000008 .04666667 C .068 .09266666 .061 .139 .055 .18566667 C .049666674 .23233336 .04433334 .27900005 .039000006 .3256667 C .033000005 .37100003 .02666667 .41633336 .020000004 .4616667 C .014000001 .5076667 .008 .5536667 .0020000004 .5996667 C 0 .61300006 .0036666666 .624 .013 .6326667 C .023000002 .6413334 .03466667 .642 .048 .6346667 C .067999999 .6246667 .08466667 .6103334 .098000008 .5916667 C .09666667 .5956667 .09600001 .59900006 .09600001 .6016667 C .09533334 .6056667 .09466667 .60966679 .094000007 .6136667 C .093333337 .6176667 .09233334 .62166669 .091000009 .6256667 C .089666668 .629 .086666669 .63266679 .082 .6366667 C .078 .6406667 .07366667 .6426667 .069000009 .6426667 C .065000008 .6433334 .062000004 .64033338 .060000004 .6336667 C .060000004 .6330001 .059666668 .6326667 .059 .6326667 C .058333339 .6326667 .05800001 .6330001 .058000007 .6336667 C .05800001 .6416667 .06133334 .6463334 .068 .6476667 C .07466667 .6496667 .08166667 .6486667 .089 .64466676 C .097 .6406667 .10333333 .6333334 .108 .6226667 C .11266667 .6113334 .116666678 .59900006 .12000001 .5856667 C .123333338 .573 .12633334 .56066676 .12900001 .5486667 C .13233334 .53800007 .135 .527 .137 .5156667 C .13966666 .50500008 .14233335 .49400006 .14500001 .4826667 C .14833334 .44266669 .15200001 .4026667 .15600002 .3626667 C .16000001 .32333336 .165 .284 .171 .24466668 C .17233335 .24000001 .17433334 .23633336 .17700002 .23366668 C .17966669 .245 .18166669 .25633336 .183 .2676667 C .18500002 .2796667 .18666668 .29133336 .18800003 .3026667 C .1926667 .35733334 .1926667 .41200004 .18800003 .4666667 C .18666668 .48133338 .18533336 .4956667 .18400002 .5096667 C .18266668 .52433338 .182 .53900006 .18200001 .5536667 C .18266666 .5676667 .18366666 .5806667 .185 .5926667 C .18633335 .6046667 .19466667 .6136667 .21000001 .6196667 C .21800001 .62233337 .227 .62100008 .23700002 .6156667 C .24033337 .62100008 .24433334 .6256667 .24900002 .6296667 C .26833336 .619 .28433336 .6033334 .29700003 .5826667 C .30966667 .5626667 .32133336 .54300007 .33200003 .5236667 C .35933338 .48500005 .38466669 .44533337 .40800003 .4046667 C .43200005 .3646667 .45400004 .32333336 .474 .28066669 L .46800003 .3356667 C .46400003 .3816667 .4593334 .4276667 .45400004 .4736667 C .44933335 .51966676 .44533337 .56566676 .44200004 .6116667 C .44133339 .62633338 .4466667 .6386667 .45800004 .6486667 C .46933339 .6593334 .48200003 .6646667 .49600003 .6646667 C .51133337 .6646667 .5236667 .6593334 .533 .6486667 C .5423333 .6386667 .54766669 .62633338 .549 .6116667 L .564 .4686667 C .5646667 .4686667 .5653333 .4686667 .566 .4686667 C .56666669 .46933339 .5673334 .4696667 .568 .4696667 C .5673334 .49900005 .56600007 .52833339 .564 .5576667 C .56266668 .58766677 .5606666 .61700007 .558 .6456667 C .558 .6483334 .559 .6486667 .561 .6466667 C .579 .55133339 .593 .4546667 .603 .35666669 C .6136667 .25933335 .6163333 .162 .611 .064666669 M .167 .04966667 C .16833334 .051000004 .16899999 .05066667 .169 .048666669 C .16833334 .040000004 .172 .033999999 .18 .030666668 C .186 .05 .19200002 .06933334 .19800002 .08866667 C .20400001 .108666669 .20933335 .12866667 .21400002 .14866667 C .20866668 .134 .20233333 .118999999 .19500003 .10366667 C .1876667 .088999997 .17966669 .074666667 .171 .06066667 C .16966667 .058666674 .16833334 .055000005 .167 .04966667 Z "/>
</symbol>
<symbol id="font_14_40">
<path d="M .36400003 .4296667 C .36933337 .39900003 .3726667 .36800004 .374 .3366667 C .37533335 .30533336 .37433336 .27400003 .37100003 .24266668 C .36833335 .21533335 .364 .18699999 .358 .15766667 C .352 .12900001 .34066669 .10300001 .32400004 .07966667 C .3186667 .072333339 .313 .065000008 .307 .05766667 C .301 .051000004 .29433335 .044666668 .28700004 .03866667 C .2776667 .029333333 .267 .021333335 .25500003 .014666667 C .2436667 .008666667 .231 .004666667 .21700001 .0026666669 C .20633334 .002 .19533335 .002 .18400002 .0026666669 C .16733335 .00000000007761022 .15033335 .0013333334 .133 .006666667 C .115666668 .012000001 .10033334 .020000002 .087000008 .030666668 C .063666667 .05066667 .04633333 .07466667 .035 .10266667 C .023666665 .13133334 .015333332 .16033334 .009999999 .18966668 C -.0000000009313226 .2536667 -.0000000009313226 .31766669 .009999999 .3816667 C .019999998 .4456667 .041666669 .50566676 .075 .5616667 L .07700001 .5636667 C .08700001 .5903334 .10033334 .6143334 .11700001 .6356667 C .11766667 .637 .11833334 .6373334 .119 .6366667 C .11966667 .6366667 .11966667 .63600006 .119 .6346667 C .11633334 .63000008 .113333348 .62500008 .11000001 .6196667 C .10733334 .61500009 .10500001 .6100001 .10300001 .6046667 C .10033334 .59933337 .09800001 .59366676 .09600001 .5876667 C .09400001 .5823334 .09200001 .5770001 .09 .5716667 C .09133334 .5723334 .09266668 .5723334 .094000007 .5716667 C .09600001 .5716667 .09733334 .5716667 .098000008 .5716667 C .10666666 .5903334 .117000009 .60666677 .12900001 .6206667 C .14100002 .6346667 .15500002 .6433334 .171 .6466667 C .17766667 .6493334 .18400002 .6513334 .19000001 .6526667 C .19666668 .6546667 .20333334 .65533336 .21000001 .6546667 C .21733336 .6560001 .22466667 .6563334 .23200001 .6556667 C .24000001 .6556667 .24700003 .65400007 .25300003 .6506667 C .25966669 .6466667 .26533333 .64100006 .27 .6336667 C .27533338 .6263334 .2796667 .6193334 .28300003 .6126667 C .28700004 .614 .291 .614 .29500003 .6126667 C .29966668 .61200007 .30333338 .60933336 .30600003 .6046667 C .31333337 .5913334 .32033337 .5776667 .32700003 .5636667 C .33366669 .5496667 .33933334 .5353334 .344 .5206667 C .34866668 .50600007 .35233335 .49100004 .35500003 .4756667 C .35833336 .46033336 .36133338 .44500003 .36400003 .4296667 M .23900002 .13866668 C .24766667 .162 .25366668 .186 .25700004 .21066667 C .26033337 .23533334 .26200003 .26000003 .26200003 .2846667 C .26000003 .31000004 .25800003 .33500005 .256 .3596667 C .25400005 .38500003 .25100003 .41 .24700001 .4346667 C .24566667 .44200004 .24433334 .44933335 .243 .4566667 C .24166668 .4646667 .24033337 .47200004 .23900002 .4786667 C .23633336 .48800005 .23333335 .497 .23000002 .5056667 C .22666669 .5143333 .22333335 .523 .22000002 .5316667 C .21866668 .535 .21700001 .5386667 .21500002 .54266676 C .21366668 .5466667 .21200001 .5503334 .21000001 .5536667 C .20866668 .555 .20733334 .5556667 .20600002 .5556667 L .201 .5556667 C .19833334 .5503334 .19566667 .5446667 .19300002 .5386667 C .19100003 .53266677 .18933334 .527 .18800001 .5216667 C .18266668 .5036667 .17766667 .48533336 .17300001 .4666667 C .16900002 .4486667 .16566669 .43000005 .163 .4106667 C .15833335 .37400005 .15633334 .3366667 .157 .2986667 C .15766667 .2606667 .16100002 .223 .16700001 .18566667 C .16900002 .17433334 .16766668 .16433335 .163 .15566667 C .149 .22100002 .14333333 .2883334 .14600002 .3576667 C .14933335 .4276667 .16533335 .49266673 .194 .5526667 C .19133334 .55066677 .18866669 .5476667 .186 .5436667 C .18400002 .5403334 .182 .53700008 .18 .53366675 C .17066668 .51500007 .16266668 .49566666 .156 .4756667 C .14933335 .4556667 .14400001 .43533338 .14000002 .4146667 L .13800001 .4106667 C .136 .39933337 .13433333 .3876667 .133 .3756667 C .13233334 .36433337 .13133335 .35300002 .13000001 .3416667 C .12866669 .3076667 .12966667 .2736667 .133 .23966667 C .13700001 .20633334 .14266669 .17333333 .15 .14066667 C .14666668 .138 .143 .13633333 .13900002 .13566667 C .12700002 .133 .11533334 .135 .10400001 .14166667 C .10933334 .131 .116666678 .12 .126 .108666669 C .13533335 .097333338 .14600002 .08866667 .158 .082666669 C .17066668 .07733333 .18400002 .07666666 .19800002 .08066667 C .20933335 .08466667 .21833335 .09266666 .22500001 .104666668 C .22833336 .10999999 .23100002 .11533334 .23300001 .12066667 C .23566668 .12666667 .23766668 .13266666 .23900002 .13866668 Z "/>
</symbol>
<symbol id="font_14_3a">
<path d="M .3976667 .007333333 C .39166669 .0033333328 .38500003 .0033333328 .3776667 .007333333 C .3643334 .013333335 .35533337 .023000002 .3506667 .036333335 C .34600006 .050333337 .34233336 .063666667 .3396667 .07633333 L .33366669 .11033334 L .15966667 .42133335 C .157 .42466668 .15433334 .42833338 .15166667 .43233336 C .149 .43633334 .14633334 .44000004 .14366667 .44333337 C .14433335 .40933336 .14433335 .37533335 .14366667 .34133337 C .14366667 .30733336 .14366667 .27333335 .14366667 .23933335 C .145 .21933335 .14566668 .19933336 .14566668 .17933335 C .14633334 .15933335 .14700002 .13933335 .14766668 .11933334 C .14833333 .10933334 .149 .097 .14966667 .08233334 C .15033333 .068333338 .14866667 .05566667 .14466667 .044333336 C .14133334 .033000005 .13266666 .026333334 .118666667 .024333334 C .11266667 .014333333 .10433334 .007666666 .09366667 .004333333 C .083666678 .00033333308 .07300001 -.00000000031044088 .06166667 .003333333 C .051000004 .0059999998 .041666669 .0123333339 .033666668 .022333334 C .030999998 .064333338 .028666666 .10633334 .026666668 .14833334 C .025333336 .19033332 .024000004 .23233335 .02266667 .27433334 C .021333337 .30833338 .020333337 .34233336 .019666668 .37633337 C .019000004 .411 .018000003 .44533334 .01666667 .47933335 C .016 .5013334 .015333335 .5233334 .014666669 .5453334 C .014666669 .5673334 .015333336 .58900007 .01666667 .6103334 C .023333336 .6156667 .029666668 .6186667 .03566667 .6193334 C .03566667 .6273334 .038333339 .63500007 .043666673 .6423334 C .051666675 .6523334 .06066667 .65700009 .07066667 .6563334 C .08066667 .6563334 .091 .65266677 .101666677 .6453334 C .112333338 .6386667 .12200001 .6306667 .13066668 .62133339 C .13933334 .6126667 .14600002 .6053334 .15066667 .5993334 C .168 .5766667 .18366666 .55333337 .19766668 .5293334 C .21233334 .50600007 .22633334 .48200003 .23966669 .45733337 C .25100003 .438 .26200003 .41833333 .2726667 .39833335 C .28333337 .37833334 .2936667 .358 .30366669 .33733336 C .30500005 .3346667 .3056667 .33133335 .3056667 .32733334 L .3216667 .29633335 C .319 .3216667 .31533335 .34733335 .31066669 .37333334 C .30600003 .39933334 .30133335 .42500005 .29666669 .45033337 C .29333336 .46833334 .29000003 .48633338 .2866667 .5043334 C .28333337 .5223334 .279 .5403334 .27366669 .5583334 C .27100004 .5676667 .26833336 .5770001 .2656667 .5863334 C .26366673 .5963334 .26533339 .6063334 .2706667 .61633339 C .27533338 .6243334 .28100003 .63033339 .28766669 .6343334 L .28766669 .63533338 C .28833337 .63533338 .2886667 .63566669 .2886667 .6363334 C .29466669 .6476667 .3036667 .65333339 .3156667 .65333339 C .32833339 .65333339 .33900003 .65033337 .34766669 .64433339 C .34966669 .6436667 .35200004 .642 .3546667 .63933339 C .3566667 .63000008 .35900007 .6203334 .3616667 .6103334 C .36433337 .6010001 .367 .5916667 .3696667 .5823334 C .3776667 .5536668 .38433338 .52400007 .3896667 .49333335 C .395 .46333338 .4 .43333338 .4046667 .40333335 C .41466669 .34266667 .4226667 .28133337 .4286667 .21933334 C .43466673 .15733333 .43966673 .09566667 .4436667 .034333335 C .43833337 .027 .4316667 .020666667 .4236667 .015333334 C .4156667 .010000001 .40700004 .007333333 .3976667 .007333333 M .4536667 .044333336 C .45233337 .044333336 .45100007 .043333334 .4496667 .041333334 C .44300006 .13666667 .4336667 .23166669 .4216667 .32633335 C .41033338 .4216667 .39433337 .5156667 .3736667 .6083334 C .37233339 .61233338 .37333337 .61600008 .3766667 .6193334 C .37933339 .6226667 .38300006 .6240001 .3876667 .6233334 C .39233337 .6233334 .395 .62066677 .3956667 .6153334 C .4136667 .5286667 .4276667 .441 .4376667 .35233335 C .44833336 .26433335 .45333339 .176 .4526667 .08733334 C .45333339 .084000017 .4536667 .07766667 .4536667 .068333338 C .4543334 .059666668 .4543334 .051666667 .4536667 .044333336 M .015666668 .11733334 C .013 .15266668 .011000001 .18933334 .00966667 .22733334 C .008333337 .266 .007000003 .30333335 .0056666696 .33933337 C .004333336 .3746667 .003333335 .41033338 .002666667 .44633336 C .0020000016 .48233334 .0013333348 .5183334 .0006666668 .5543334 C .0000000012417635 .563 .00033333526 .5716667 .0016666688 .5803334 C .0030000024 .5896668 .0053333358 .5983334 .008666668 .6063334 C .008000002 .5903334 .00766667 .57433339 .00766667 .5583334 C .008333336 .5423334 .009000002 .5263334 .00966667 .51033338 C .010333336 .47566668 .011000001 .441 .011666667 .40633337 C .013 .37166668 .014000001 .33666668 .014666669 .30133335 L .023666669 .07633333 L .02066667 .08033334 C .019333337 .08366666 .01766667 .09599999 .015666668 .11733334 M .12766667 .16633334 L .124666679 .16333334 L .123666677 .16333334 L .12266667 .16233334 L .12166667 .10233334 C .12166667 .09433334 .123 .08466667 .12566667 .07333334 C .12900001 .06266667 .12900001 .051 .12566667 .038333335 C .13233334 .04966667 .135 .061 .13366667 .072333339 C .133 .08166667 .13233334 .09133333 .13166668 .101333338 C .13166668 .11133333 .131 .12133334 .12966667 .13133334 C .12966667 .13733334 .12933333 .143 .12866667 .14833334 C .12866667 .15433334 .12833333 .16033334 .12766667 .16633334 Z "/>
</symbol>
<symbol id="font_14_13">
<path d="M .592 .09366667 C .5826667 .071666669 .56666669 .05366667 .54399999 .039666669 C .522 .025666669 .4996667 .016 .47700004 .0106666679 C .451 .004666667 .42500005 .002 .39900003 .0026666669 C .37300004 .0026666669 .3466667 .004666667 .32000003 .008666667 C .29400004 .012666668 .26933334 .017666668 .246 .023666669 C .24133335 .013666667 .23500002 .0076666676 .22700002 .0056666668 C .22233336 .0050000005 .21766669 .005666667 .21300002 .007666667 C .20833336 .0030000003 .20300001 .0006666668 .19700001 .0006666668 C .19033335 .00000000015522044 .18366666 .0003333335 .17700002 .0016666668 C .171 .0030000003 .16533335 .0053333339 .16000001 .008666667 C .14933335 .016 .14166667 .024000003 .13700001 .03266667 C .13233334 .041333338 .12866669 .051666667 .126 .06366667 C .11000001 .07033334 .094000007 .077 .078 .08366667 C .06266666 .091 .047333335 .09866667 .032 .10666667 C .017333335 .11466667 .008 .127 .0040000008 .14366667 C 0 .16033334 .002333333 .17566668 .011 .18966668 C .019000002 .20366667 .031000004 .21266668 .047000003 .21666669 C .06366667 .22133334 .079 .21966668 .09300001 .21166668 L .097 .20866668 C .09633335 .21466668 .09533334 .22033334 .094000007 .22566667 C .09266668 .23166669 .09133334 .23766668 .09 .24366668 C .079333338 .29966668 .067999999 .35533334 .056 .41066668 C .044666668 .46666668 .033333336 .5223333 .022 .5776667 C .021333335 .5796667 .020666669 .58166667 .020000002 .5836667 C .019333335 .5856667 .018666668 .5873334 .018000002 .5886667 C .015333335 .59866669 .017 .60733339 .023000002 .6146667 C .029000001 .62266668 .036333335 .62733337 .045 .6286667 C .04766667 .6293333 .05 .6296667 .052 .6296667 C .05466667 .63033339 .057 .6306667 .059 .6306667 C .062333336 .6393333 .06866667 .64599999 .078 .65066668 C .087333347 .65599998 .09766667 .65933337 .109000008 .6606667 C .12033334 .6626667 .12966667 .66333338 .13700001 .6626667 C .17033334 .66 .19966668 .6493333 .22500001 .6306667 C .25100003 .612 .27566669 .5913333 .29900003 .5686667 C .32500003 .544 .35066668 .5186667 .37600003 .49266667 C .40200005 .4666667 .42700006 .44000004 .45100004 .41266669 C .4596667 .404 .46800003 .39466668 .476 .38466669 C .48466669 .37533335 .4926667 .36566667 .5 .35566668 C .51266667 .339 .52466669 .322 .536 .30466668 C .54800006 .28733335 .5586667 .26900003 .568 .24966668 C .58 .22633334 .58966669 .20100002 .597 .17366667 C .605 .14633334 .60333338 .11966667 .592 .09366667 M .053000004 .5046667 C .052333338 .50666669 .050333337 .5096667 .047000003 .5136667 C .043666673 .5183334 .04266667 .517 .044 .5096667 C .052666669 .475 .06066667 .44033335 .068 .40566669 C .076000008 .37166668 .08433334 .33733336 .09300001 .30266667 L .120000008 .19566667 C .123333338 .19433336 .12633334 .1926667 .12900001 .19066668 C .13233334 .18866666 .13533335 .18699999 .13800001 .18566668 C .13533335 .19433336 .13233334 .20266669 .12900001 .21066667 C .12633334 .21933335 .124000009 .228 .12200001 .23666668 C .11933335 .246 .11566668 .25966669 .11100001 .27766667 C .106333348 .2963333 .10133334 .31666667 .09600001 .33866669 C .090666677 .36133335 .08500001 .38366667 .079 .40566669 C .07366667 .42766667 .06866667 .44733335 .064 .46466667 C .059333337 .48266665 .05566667 .49600003 .053000004 .5046667 M .47700004 .19966668 C .4696667 .21100001 .462 .22233336 .45400004 .23366668 C .4466667 .24566667 .439 .257 .43100003 .26766668 C .41633336 .28766669 .40033333 .307 .38300003 .32566668 C .36633335 .34433333 .34833337 .362 .32900004 .37866668 C .29233337 .41266669 .25066669 .443 .20400001 .46966667 L .18500002 .47966669 C .19366668 .43833337 .20166667 .39666669 .209 .35466669 C .21700001 .31266666 .22433335 .271 .231 .22966668 C .23366668 .21500002 .23633336 .2 .23900001 .18466668 C .24166668 .17000002 .24433334 .15500002 .24700001 .13966668 C .26233337 .13433334 .27800004 .12900001 .29400004 .123666677 C .31000004 .11900001 .32633338 .11500001 .34300003 .11166667 C .35633336 .109000008 .36733333 .107 .37600003 .105666678 C .38466669 .10433334 .39533339 .10333333 .40800003 .10266667 C .42000006 .10266667 .43033339 .10300001 .439 .10366667 C .44766668 .10433334 .45733337 .106000009 .46800003 .10866667 C .4766667 .11066667 .48433338 .113000009 .49100004 .11566667 C .49833337 .11900001 .5046667 .123 .51 .12766667 C .5093333 .13433333 .50766667 .14033334 .505 .14566668 C .50233337 .15166669 .49933336 .15766669 .49600003 .16366668 C .49333335 .16966667 .49033336 .17566668 .48700003 .18166667 C .4836667 .18833335 .48033337 .19433336 .47700004 .19966668 Z "/>
</symbol>
<symbol id="font_14_17">
<path d="M .018000002 .55733337 C .051333339 .5746667 .086 .58933338 .122 .6013334 C .158 .6133334 .194 .6240001 .23000002 .6333334 L .25300003 .63933339 C .27366669 .6433334 .29433335 .6470001 .31500004 .6503334 C .3356667 .6543334 .35666669 .65700009 .37800003 .65833339 C .38266669 .6590001 .387 .6593334 .39100004 .6593334 C .3956667 .6593334 .40033338 .6593334 .40500004 .6593334 C .3856667 .6546667 .36600004 .6496667 .34600003 .64433339 C .326 .63966676 .30633334 .63500007 .28700004 .63033339 C .25300003 .6230001 .21900003 .61500009 .18500002 .6063334 C .15166669 .59833338 .11833334 .5886667 .085 .5773334 C .07366667 .57400009 .062333336 .57000008 .051000004 .56533339 C .040333336 .56133338 .029333337 .5566667 .018000002 .55133339 C .015333335 .5526667 .015333335 .5546667 .018000002 .55733337 M .57900008 .15033335 C .5776667 .14433335 .57433339 .14100002 .569 .14033334 C .5323334 .13366668 .4953334 .12533333 .45800004 .11533333 C .42133335 .106000009 .3853334 .095 .35000003 .082333337 C .33333335 .07633334 .31633336 .07033334 .29900003 .064333338 C .28233335 .058333335 .2656667 .051666667 .24900002 .04433333 L .24800003 .04433333 C .24733335 .043666666 .24633335 .043 .245 .042333336 C .2436667 .042333336 .24233336 .042 .24100001 .041333334 C .23566668 .038666667 .23000002 .036333335 .22400002 .034333335 C .21866669 .032333334 .21333336 .03 .20800002 .027333333 L .20700002 .026333332 C .20300003 .023666665 .19533336 .020333333 .18400002 .016333333 C .17333335 .012333331 .163 .008999998 .15300001 .0063333308 L .13900002 .0023333319 L .135 .0023333319 C .13300002 .0016666651 .13100001 .0013333317 .12900001 .0013333317 C .121000017 -.0000000018626452 .113000009 -.0000000018626452 .105000007 .0013333317 C .097 .0026666653 .091 .0076666658 .087000008 .016333333 C .085 .020333333 .08466667 .024999999 .086 .030333333 C .07333333 .035666668 .06333334 .044666668 .056000007 .057333337 C .049333339 .07066666 .048333337 .08366666 .053000004 .09633333 C .050333337 .11366666 .048000006 .131 .046000005 .14833334 C .044666668 .16633335 .043333338 .18400002 .042000005 .20133335 L .03 .32133336 L .018000002 .43533335 C .0053333339 .44933335 -.00000000015522044 .46566669 .0019999999 .48433335 C .004 .503 .0123333339 .5186667 .027 .5313334 C .027666666 .5326667 .028333335 .53400006 .029000001 .5353334 C .029666668 .5366667 .030333333 .53800007 .031000002 .5393334 C .041666669 .5440001 .052333338 .54833337 .063 .55233338 C .07366667 .55633339 .08433334 .56000009 .095 .5633334 C .12833335 .5746667 .16166668 .58433338 .19500001 .5923334 C .22900002 .6010001 .263 .6086667 .29700003 .6153334 C .3236667 .62133339 .35000003 .6276667 .37600003 .6343334 C .40200005 .6416667 .428 .64866676 .45400004 .6553334 C .45733337 .6546667 .4606667 .65400007 .46400003 .65333339 C .46800003 .65333339 .47133336 .65266677 .47400005 .6513334 L .49000005 .6453334 C .4926667 .6433334 .49533335 .64100006 .49800004 .6383334 C .5006667 .6363334 .5033334 .6343334 .50600007 .6323334 C .5093334 .6216667 .5116667 .61100009 .513 .6003334 C .51433339 .5903334 .514 .5803334 .512 .57033339 L .462 .5553334 C .45133338 .55200007 .44000007 .5486667 .42800004 .5453334 C .41666667 .54200008 .40533338 .5386667 .39400003 .5353334 C .39133335 .53400006 .38933335 .53333339 .388 .53333339 C .37533335 .53000006 .36033336 .5256667 .34300003 .52033337 C .32633338 .5156667 .30933336 .51066669 .29200004 .50533339 C .27533338 .5006667 .261 .49633337 .24900002 .49233336 C .23700004 .48833335 .2296667 .48566667 .22700002 .48433335 C .21100001 .479 .19500001 .47333337 .17900002 .46733336 C .16300002 .46133337 .14733334 .455 .13200002 .44833336 L .13000001 .44633336 C .13066668 .443 .13133335 .43733336 .13200002 .42933334 C .13333334 .42200003 .13433336 .415 .135 .40833334 C .13633335 .40166668 .13700001 .39733336 .13700001 .39533336 C .16500002 .40733335 .1926667 .419 .22000002 .43033336 C .24800003 .44233335 .27633337 .4536667 .305 .46433337 C .321 .46833334 .337 .47233335 .35300002 .47633336 C .3696667 .48100005 .386 .48566667 .402 .49033336 L .41500003 .49333335 C .421 .49466668 .4266667 .49533335 .432 .49533335 C .438 .49600003 .444 .49666668 .45000003 .49733336 C .46266673 .498 .4746667 .497 .48600004 .49433337 C .49733339 .49233333 .50633338 .48533336 .513 .47333337 C .51433339 .47200004 .51500007 .47066669 .51500007 .46933336 C .5156667 .46800003 .51633337 .4666667 .517 .46533335 C .5183334 .46333338 .51933339 .46133337 .52000007 .45933334 C .52066668 .45733334 .5213334 .45533336 .522 .45333336 C .5226667 .45266668 .5233334 .45233334 .52400007 .45233334 C .53333339 .44766665 .53900006 .43933336 .541 .42733336 C .54300007 .41799999 .5413334 .40833334 .536 .39833335 C .5313334 .38900004 .5243334 .382 .51500007 .37733335 C .5043333 .3726667 .49333335 .36966668 .48200003 .36833335 C .47133336 .3676667 .46033336 .36600004 .44900004 .36333335 C .43700005 .36133338 .42466668 .359 .41200004 .35633336 C .4 .3543333 .388 .35166667 .37600003 .34833334 C .35200004 .34166668 .32800005 .33433334 .30400003 .32633335 C .28066669 .319 .25733338 .31033335 .23400001 .30033336 C .21933335 .29433335 .205 .28800003 .19100002 .28133334 C .17766668 .27466668 .16400002 .26766668 .15 .26033334 L .15600002 .19533335 C .15600002 .19466669 .15600002 .194 .15600002 .19333335 L .15600002 .19133334 L .15900001 .19333335 C .17033334 .19866668 .18133335 .20333334 .19200002 .20733334 C .20333337 .21200001 .21433336 .21666669 .22500001 .22133334 L .31000004 .25433336 C .31733335 .25766669 .32466669 .2606667 .33200003 .26333336 C .34 .266 .34766666 .26866666 .35500003 .27133335 C .367 .276 .37900005 .28033335 .39100004 .28433336 C .40300004 .289 .41500006 .29333333 .42700003 .29733334 L .46600003 .30933333 C .47133336 .31066666 .4766667 .31233336 .48200003 .31433336 C .4873334 .317 .49266673 .319 .49800004 .32033334 C .5173333 .32433335 .533 .32266668 .545 .31533335 C .5576667 .308 .5676667 .29733334 .57500007 .28333334 C .5823334 .26933334 .5876667 .254 .591 .23733334 C .595 .22066669 .5973334 .20533335 .59800007 .19133334 C .5986667 .18266668 .59700009 .17466669 .59300008 .16733335 C .5896667 .16066669 .58500006 .15500002 .57900008 .15033335 M .337 .36233334 C .3216667 .35766665 .30600003 .35300002 .29000003 .34833334 C .2746667 .34366668 .25933335 .33866669 .24400002 .33333335 C .23400001 .33066667 .22400002 .32766668 .21400002 .32433335 C .20466669 .3216667 .19533336 .319 .18600002 .31633333 C .18400002 .30499999 .17866667 .29566667 .17000002 .28833334 C .19466669 .301 .21966668 .31233336 .245 .32233335 C .271 .33233337 .29633335 .34233336 .321 .35233335 C .32633338 .35500003 .33200003 .35733334 .33800004 .35933335 L .337 .36233334 M .116000007 .016333333 C .123333338 .015666666 .13166668 .015666666 .14100002 .016333333 C .15033335 .016333333 .15566668 .016666666 .157 .017333333 C .15833335 .017333333 .15933335 .017666666 .16000001 .01833333 C .16400002 .020333333 .168 .022333334 .172 .024333332 C .17600002 .026333332 .17966669 .02833333 .18300002 .030333333 C .191 .034333335 .19866668 .038333335 .20600002 .042333336 C .214 .04633333 .22166668 .050333334 .22900002 .054333334 L .22900002 .056333335 C .22033336 .053000004 .21133335 .04966667 .20200002 .046333337 C .1926667 .043 .18333334 .039666669 .17400001 .036333335 C .16466667 .032999997 .15500002 .029666665 .14500001 .026333332 C .13566669 .022333332 .126 .019 .116000007 .016333333 Z "/>
</symbol>
<symbol id="font_14_4d">
<path d="M .5546667 .38000003 L .5516667 .35900004 C .55100008 .34966669 .5466667 .34133337 .53866669 .33400003 C .53066667 .32733337 .5226667 .32433335 .5146667 .32500003 C .49133338 .32633338 .46766673 .32800005 .4436667 .33000005 C .4203334 .33200006 .39700005 .33400003 .3736667 .33600004 C .40100003 .29533337 .42500005 .25400005 .4456667 .21200001 C .45900003 .18333334 .4723334 .15333334 .48566673 .122 C .49900005 .09133334 .5036667 .059666668 .49966673 .027 C .49833337 .016333335 .49300004 .009333334 .4836667 .006 C .47433339 .0033333332 .46533338 .0036666666 .4566667 .007 C .45200006 .006333334 .44733338 .0059999998 .4426667 .006 C .4386667 .0066666665 .43433336 .008 .4296667 .010000001 C .42833338 .010000001 .4276667 .010333334 .4276667 .011 C .4236667 .0069999999 .41933335 .0059999998 .41466669 .008 C .40600003 .03133334 .39666669 .05466667 .3866667 .078 C .3766667 .102 .3666667 .12533333 .35666669 .148 C .35333336 .15666667 .34833337 .16866666 .3416667 .184 C .33500005 .2 .32800005 .21633335 .3206667 .23300001 C .31333337 .25033335 .30633337 .26500003 .2996667 .27700005 C .29433338 .28900004 .28900004 .29933337 .2836667 .30800004 L .2836667 .30900003 C .2776667 .31766669 .27200005 .32700003 .26666669 .33700005 C .254 .33766673 .24100001 .33833338 .22766668 .33900003 C .21433334 .3396667 .20099999 .34033338 .18766667 .34100003 C .19033335 .31833337 .19266667 .2956667 .19466667 .27300004 C .19666668 .25033335 .19800002 .22733335 .19866668 .20400001 C .2 .17933335 .20133333 .15433334 .20266667 .12900001 C .20466668 .10433334 .205 .07966667 .20366667 .055000005 C .20433335 .052333338 .20466668 .049333335 .20466668 .046000005 C .20466668 .043333338 .20466668 .04066667 .20466668 .038000004 C .198 .025333336 .19033332 .015333335 .18166667 .008 C .175 .0026666669 .16733332 0 .15866667 0 C .15 0 .14266669 .0033333337 .13666667 .010000001 C .13333333 .015333335 .13133334 .020666669 .13066668 .026 C .12666667 .025333336 .122666668 .026333334 .11866667 .029000001 C .11466667 .032333334 .112666677 .03666667 .112666677 .042000005 C .11000001 .052666677 .10866668 .06366667 .10866667 .075 C .10933334 .087000008 .109000008 .09833334 .10766667 .109000008 L .098666679 .17500001 C .09466667 .19833334 .090666677 .22166668 .08666667 .245 C .08266667 .26900003 .078666668 .29266668 .07466667 .316 L .068666677 .35100005 C .06800001 .35100005 .067 .35100005 .06566667 .35100005 C .065000008 .35100005 .064 .35100005 .06266667 .35100005 C .06266667 .35500003 .06066667 .35733334 .05666667 .35800005 C .051333336 .35933338 .045666666 .36100007 .039666669 .36300005 C .034333335 .365 .029 .367 .023666665 .36900003 L .046666668 .37200005 C .036666667 .37600003 .026666666 .38133336 .016666666 .38800005 C .0073333329 .39400006 .0019999995 .40233339 .00066666587 .41300006 C -.0000000009313226 .42433337 .0023333329 .43433336 .007666667 .44300006 C .013 .4516667 .020666669 .456 .030666668 .45600004 C .033999999 .4566667 .037 .45700006 .039666669 .45700006 C .043 .45700006 .046 .45700006 .048666669 .45700006 C .045333338 .47433339 .041666669 .4916667 .037666669 .50900009 C .034333335 .5263334 .030666665 .54333338 .026666668 .56000009 C .035333337 .5666667 .042333336 .57400009 .047666667 .582 C .03833333 .59000006 .03133333 .6003334 .026666668 .61300006 C .022666669 .6256667 .023333334 .6376667 .028666668 .64900007 C .03533333 .6616667 .04533333 .6693334 .058666666 .67200008 C .072000008 .6746667 .086333338 .675 .101666677 .67300006 C .117000009 .671 .13 .66899999 .14066667 .66700008 C .14400001 .66700008 .147 .66566678 .14966667 .66300007 C .153 .6616667 .15633333 .6603334 .15966667 .65900006 C .16366667 .65766677 .16733332 .6563334 .17066667 .65500006 C .17133333 .65500006 .17166667 .6546667 .17166667 .65400007 C .17233335 .65400007 .173 .65400007 .17366667 .65400007 C .22900002 .6366667 .28166668 .61233338 .33166669 .58100005 C .38233338 .5503333 .432 .5183334 .4806667 .48500005 C .4873334 .4796667 .49200008 .47233335 .49466674 .46300004 C .50200006 .45833338 .509 .45333339 .51566669 .44800005 C .5223333 .44266669 .529 .43733336 .53566667 .43200005 C .5516667 .42000006 .558 .4026667 .5546667 .38000003 M .14866667 .53300008 C .14933335 .5323334 .14966667 .5313334 .14966667 .53000006 C .14966667 .52866676 .14999999 .5273334 .15066667 .526 C .15333332 .5286667 .15633333 .5296667 .15966667 .52900007 C .16366667 .52900007 .16600001 .5266667 .16666667 .522 C .16933334 .5113334 .17166667 .5006667 .17366667 .49000005 C .17633333 .48000003 .17866667 .4696667 .18066667 .45900003 C .18333334 .45833338 .18599999 .45800004 .18866667 .45800004 C .19133334 .45800004 .194 .45766673 .19666668 .45700006 C .19800002 .46300004 .20100002 .46800003 .20566668 .47200004 C .21566667 .4786667 .22566669 .48066674 .23566668 .47800005 C .24633336 .47533337 .25633336 .47066675 .2656667 .46400006 C .27566669 .45800004 .28433336 .4516667 .2916667 .44500003 L .3886667 .43300004 C .35000003 .45966674 .31066669 .48300005 .2706667 .503 C .23066668 .5236667 .18900001 .53900006 .14566668 .549 L .14866667 .53300008 M .21966668 .083000008 C .21766667 .124333348 .21533335 .16566669 .21266668 .207 C .21066667 .24900003 .20666667 .29033337 .20066667 .33100004 L .20866667 .33100004 C .214 .30233336 .21800001 .27300004 .22066668 .24300002 C .22333335 .21300002 .22600001 .18300002 .22866668 .15300001 C .23 .135 .22933334 .12166667 .22666668 .113000009 C .22399999 .105 .22166668 .095000009 .21966668 .083000008 Z "/>
</symbol>
<use xlink:href="#font_14_65" transform="matrix(14.872499,.000000000000000057637028,.000000000000000057637028,-14.872499,121.86728,236.31075)" fill="#ffffff"/>
<use xlink:href="#font_14_40" transform="matrix(14.872499,.000000000000000057637028,.000000000000000057637028,-14.872499,131.65244,236.31075)" fill="#ffffff"/>
<use xlink:href="#font_14_3a" transform="matrix(14.872499,.000000000000000057637028,.000000000000000057637028,-14.872499,138.23043,236.45452)" fill="#ffffff"/>
<use xlink:href="#font_14_13" transform="matrix(14.872499,.000000000000000057637028,.000000000000000057637028,-14.872499,145.03633,236.34049)" fill="#ffffff"/>
<use xlink:href="#font_14_17" transform="matrix(14.872499,.000000000000000057637028,.000000000000000057637028,-14.872499,153.8995,236.73709)" fill="#ffffff"/>
<use xlink:href="#font_14_4d" transform="matrix(14.872499,.000000000000000057637028,.000000000000000057637028,-14.872499,162.97583,236.28595)" fill="#ffffff"/>
<g id="Layer-1" data-name="P">
</g>
<g id="Layer-1" data-name="P">
</g>
<symbol id="font_14_39">
<path d="M .57600006 .11500001 C .5773334 .101 .57699999 .08699999 .575 .073 C .57366666 .059 .5693334 .045666666 .56200006 .033 C .5546667 .020333333 .543 .011333334 .527 .006 C .5116667 -.00000000031044088 .4976667 .0033333332 .485 .016 C .47366668 .018666668 .464 .024333334 .456 .033 C .44799999 .042333336 .444 .053000004 .444 .065 C .442 .15033333 .43033336 .23533334 .409 .32000003 C .40433336 .34133337 .39966668 .3623334 .395 .38300003 C .39033333 .40433336 .3856667 .42533336 .381 .44600005 C .369 .41133336 .35733334 .37400005 .34600003 .33400003 C .33466665 .29466669 .32533334 .26100005 .318 .23300001 C .31133334 .20566666 .30466668 .17766667 .298 .149 C .29200004 .12033334 .287 .09533334 .283 .074 C .28233335 .072000008 .28133334 .071 .28 .071 C .27933336 .071666669 .279 .072333339 .279 .073 C .27833335 .068333338 .27733336 .063666667 .276 .059000005 C .27466668 .054333334 .27333335 .049333335 .272 .044 C .26933334 .037333337 .266 .031333336 .262 .026 C .25866667 .020666669 .253 .017 .24500002 .015000001 C .23900002 .013666667 .23466669 .014000001 .23200001 .016 C .22600001 .016 .22133334 .017333335 .21800001 .02 C .214 .017333335 .21100001 .018333335 .209 .023000002 C .20433335 .030333335 .20066667 .037666669 .19800002 .045 C .19600003 .052333338 .194 .060000004 .19200002 .068 L .149 .221 C .14433335 .23766667 .13966668 .25433336 .135 .27100004 C .131 .2876667 .12700002 .30433337 .12300001 .32100005 C .12166667 .32500003 .12033334 .32900004 .119 .33300004 C .117666687 .337 .11633334 .34133337 .11500001 .34600003 C .11700001 .30400003 .11866668 .26133336 .120000008 .21800001 C .12200001 .17466666 .12333334 .132 .12400001 .09 C .12466668 .075333338 .12400001 .060000004 .12200001 .044 C .120666678 .028666668 .11200001 .017333335 .096 .01 C .08866668 .0066666665 .083000008 .007333333 .078999999 .012 C .07766667 .013333333 .076666679 .014666666 .076000008 .016 C .062000008 .011333334 .050333337 .013666667 .041000006 .023000002 C .032333334 .032333334 .026666666 .043666673 .024 .057000005 C .021333332 .07033334 .019333333 .083000008 .018 .095 C .013999999 .12433333 .010999999 .153 .009 .18100001 C .0070000009 .20966667 .005666667 .23833335 .004999999 .26700003 C .0029999999 .32633338 .0020000004 .3856667 .0020000004 .44500003 C .0013333323 .4736667 .00066666558 .5026667 0 .53200009 C 0 .56133338 .002666667 .5903334 .008000001 .619 C .008666667 .62166669 .010666666 .623 .013999999 .623 C .017333335 .623 .019333335 .62166669 .02 .619 C .023333336 .59900006 .025333336 .5776667 .026 .55500009 C .026666666 .53300008 .027333335 .51133337 .028 .49000005 C .029333333 .49000005 .03033333 .48633338 .031 .47900004 C .031666668 .4716667 .032333334 .46800003 .033000005 .46800003 L .033000005 .49100004 C .033000005 .503 .03266667 .5146667 .032 .526 C .032 .53800007 .032 .55 .032 .56200006 C .03133333 .572 .030999998 .5823334 .031 .59300008 C .031666668 .6036667 .034333335 .6136667 .039 .623 C .039 .6343334 .044666668 .6433334 .056000007 .65000006 C .072000008 .66 .08866667 .66233339 .106000009 .65700009 C .126 .65300008 .13966668 .64133337 .14700002 .62200006 C .15300001 .6146667 .15666668 .6056667 .158 .595 C .15933335 .583 .16100002 .57066676 .16300002 .558 C .165 .546 .16700001 .5336667 .16900002 .521 C .17766668 .46966673 .18733335 .41600005 .19800002 .36 C .20866668 .30400003 .21966668 .25066669 .23100002 .2 C .23766668 .228 .244 .256 .25 .28400005 C .256 .31200005 .26233334 .34000004 .269 .36800004 C .27833335 .41133336 .288 .4543334 .298 .49700005 C .308 .54033336 .31599999 .58366677 .322 .62700006 C .32333336 .63233336 .3263333 .637 .331 .64100006 C .33566667 .6456667 .34066669 .6483334 .34600003 .64900007 C .3626667 .6536667 .3773333 .6523333 .39000003 .64500007 C .39733336 .6503334 .40566669 .65300008 .41500003 .65300008 C .42433334 .65300008 .432 .6496667 .43800003 .64300009 C .45333336 .6276667 .46566669 .6103334 .47500003 .591 C .48433338 .5716667 .49133335 .5516667 .496 .531 C .5013333 .5083334 .506 .48566673 .51 .46300004 C .5146667 .441 .519 .4186667 .523 .39600004 C .52433338 .38733337 .5256667 .37866668 .527 .37000004 C .52900007 .36133338 .53033336 .3526667 .531 .34400005 C .53300008 .3366667 .5346667 .32933337 .536 .32200004 C .53800007 .3146667 .5396667 .30733336 .541 .3 C .54433336 .28333337 .5473333 .26700006 .55 .25100003 C .55333337 .23500002 .5566667 .21866668 .56 .202 C .56333336 .18733335 .56633338 .17266667 .569 .158 C .57233336 .14400001 .5746667 .12966667 .57600006 .11500001 M .16100002 .38700003 C .163 .38233338 .16466667 .37800003 .16600001 .37400005 C .16733335 .3706667 .16933334 .36733333 .172 .36400003 C .16733335 .38933338 .162 .41833339 .156 .45100004 C .15000002 .48433338 .14466669 .5136667 .14000002 .53900006 C .13933335 .5463334 .13833334 .55366668 .13700001 .56100007 C .13566667 .569 .134 .577 .13200002 .58500006 C .128 .5823334 .123333338 .5803334 .118000019 .57900008 C .11800001 .5776667 .117666687 .57633337 .11700001 .57500007 C .124333348 .5443334 .13133334 .514 .13800001 .48400004 C .14533334 .45400004 .15233334 .42333339 .15900001 .39200003 C .16033335 .3906667 .16100002 .38900004 .16100002 .38700003 M .313 .23500002 C .32233335 .27300004 .33233334 .31100003 .343 .34900005 C .35366667 .387 .36533333 .42466668 .37800003 .46200005 C .3773333 .46533338 .37666667 .4686667 .37600003 .47200004 C .37533335 .47533337 .37433336 .4786667 .373 .48200003 C .36233334 .44933335 .3523333 .41600005 .343 .38200004 C .33366666 .34866668 .32500003 .31500004 .317 .28100003 C .31633333 .27366669 .31500004 .266 .313 .25800003 C .31166665 .25066669 .31033335 .24333334 .30900003 .236 C .30966667 .23533334 .31066669 .23500002 .312 .23500002 L .313 .23500002 Z "/>
</symbol>
<symbol id="font_14_5b">
<path d="M .4576667 .19433333 C .45033337 .16966667 .44066669 .14566668 .42866669 .12233334 C .41666673 .09900001 .40100003 .078666668 .3816667 .061333337 C .3796667 .060000004 .37733338 .058000003 .3746667 .055333336 C .37000004 .05066667 .36366669 .044666668 .3556667 .037333337 C .3476667 .03066667 .3393334 .025333336 .3306667 .021333335 C .308 .0066666675 .28333334 .00000000003880511 .2566667 .0013333334 C .23000002 .0033333337 .20433335 .0106666679 .17966667 .023333336 C .15566668 .03666667 .13533335 .053000004 .11866667 .072333339 C .102000009 .09166667 .088 .11333334 .07666667 .13733334 C .07066667 .13666667 .064666669 .13766666 .05866667 .14033334 C .052666665 .14366667 .047999998 .149 .04466667 .15633333 C .020000002 .21833332 .005999999 .283 .0026666653 .35033334 C -.00000000062088176 .41833339 .0059999998 .4846667 .020666667 .5493334 C .024666667 .56600007 .030666667 .5826667 .038666667 .5993334 C .047333335 .61666676 .058333339 .63033339 .071666669 .6403334 C .085666667 .6510001 .10266667 .6546667 .122666668 .6513334 C .13466667 .65000006 .14533334 .64533337 .15466666 .6373334 C .16466667 .63000008 .172 .6206667 .17666668 .6093334 C .182 .5946667 .18233334 .5783334 .17766667 .5603334 C .17366667 .54300007 .171 .5266667 .16966668 .5113334 C .16833334 .49266673 .16766668 .47366668 .16766668 .45433335 C .16766668 .43566669 .168 .41700004 .16866666 .39833335 C .17133333 .35966669 .177 .3216667 .18566668 .28433336 C .19433333 .24700003 .20533334 .21033335 .21866668 .17433334 C .22600001 .16899999 .23333335 .16433333 .24066669 .16033334 C .24866669 .157 .257 .15500002 .2656667 .15433334 C .285 .15833335 .30166669 .16633334 .31566669 .17833333 C .3236667 .18966668 .32900004 .20333334 .33166669 .21933334 C .33433334 .236 .33600006 .25233335 .3366667 .26833336 C .33733336 .28433336 .33800004 .298 .33866669 .30933336 C .342 .354 .3436667 .3986667 .3436667 .44333337 C .3436667 .48800005 .34333337 .5326667 .3426667 .5773334 C .342 .5926667 .3486667 .6043334 .3626667 .61233338 C .3766667 .6203334 .39000003 .62066677 .4026667 .6133334 L .4026667 .6233334 C .4026667 .6286667 .4046667 .6333334 .4086667 .6373334 C .41266669 .642 .41733337 .64400008 .4226667 .6433334 C .43800006 .642 .44900004 .6363334 .4556667 .62633338 C .46300004 .61633339 .46766673 .6046667 .4696667 .5913334 C .47233335 .57866677 .474 .56600007 .47466669 .5533334 C .47600005 .5413334 .4773334 .5293334 .4786667 .5173334 C .48000003 .50533339 .48066668 .49333335 .48066668 .48133336 L .48066668 .44133336 C .4826667 .4 .48200003 .35833336 .4786667 .31633336 C .47600005 .275 .469 .23433334 .4576667 .19433333 M .16566667 .5463334 C .163 .5450001 .161 .54566678 .15966669 .5483334 C .15900001 .5436667 .158 .53900006 .15666667 .5343334 C .15533333 .53033336 .15366666 .5263334 .15166667 .5223334 C .14766667 .48833338 .14566666 .45433335 .14566666 .42033337 C .14633334 .38633336 .15 .3526667 .15666667 .31933335 C .158 .31266669 .15933334 .30600003 .16066668 .29933334 C .16200002 .29333333 .16333334 .28733335 .16466668 .28133334 C .16600003 .28133334 .16700001 .281 .16766668 .28033335 C .15166669 .36966668 .15100001 .45833335 .16566667 .5463334 Z "/>
</symbol>
<symbol id="font_14_56">
<path d="M .56566676 .5896667 C .5643334 .5856667 .563 .5823334 .5616667 .57966676 C .56100007 .57100006 .5593334 .5623334 .55666676 .5536667 C .5540001 .545 .5486667 .53800007 .5406667 .5326667 C .53733339 .53000006 .5323334 .52800008 .5256667 .5266667 C .52300009 .524 .5206667 .5226667 .51866677 .5226667 C .49333338 .51800009 .46800003 .5133334 .44266669 .5086667 C .41733337 .504 .39200006 .50000008 .36666668 .4966667 C .36666668 .4746667 .36633335 .45266668 .3656667 .4306667 C .36566673 .4086667 .36566673 .3866667 .3656667 .3646667 C .36566673 .33400003 .36566673 .30333338 .3656667 .2726667 C .36633335 .24266668 .36666668 .21233334 .36666668 .18166667 C .36733333 .16433333 .36800004 .14666666 .36866669 .12866667 C .36933337 .11133333 .37000004 .094000007 .37066669 .07666667 C .37000004 .064666669 .36800004 .053000004 .36466668 .041666669 C .36200003 .031000002 .35600005 .022 .3466667 .014666667 L .3466667 .016666668 C .34733335 .024000003 .34766666 .031000002 .34766669 .037666669 C .34766666 .045 .34800003 .052 .34866668 .05866667 L .34866668 .096666667 C .34666667 .088 .34500004 .07733333 .34366668 .064666669 C .34233333 .052 .34 .04066667 .33666668 .030666668 C .33333335 .020000002 .32633335 .012000001 .31566669 .006666667 C .305 .0013333334 .29433335 .00000000007761022 .28366668 .0026666669 C .263 .009333334 .24933334 .022333334 .24266668 .041666669 C .236 .061666669 .23200001 .08133333 .23066668 .100666668 C .22933334 .126 .22866668 .15166667 .22866668 .17766667 C .22933334 .20366667 .23000002 .22933334 .23066668 .2546667 C .23200001 .28000004 .23333335 .30566672 .23466668 .3316667 C .23666668 .3576667 .23800002 .38366667 .23866669 .4096667 L .24066668 .4536667 L .24066668 .4856667 C .23400001 .48566667 .22733335 .48566667 .22066668 .4856667 C .21466668 .48566667 .20833333 .48566667 .20166669 .4856667 C .17433334 .48566667 .14766668 .48666669 .12166667 .4886667 C .111 .49 .10033334 .4916667 .08966667 .4936667 C .079666677 .49633337 .07 .50033339 .060666667 .5056667 C .054 .51033338 .04766667 .51600006 .041666669 .5226667 C .036333335 .52933338 .032 .5366667 .028666668 .5446667 C .018666668 .55 .011 .558 .005666667 .5686667 C .001 .58000007 -.00000000015522044 .5916667 .0026666667 .6036667 C .0059999998 .6136667 .011999999 .6226667 .020666667 .63066676 C .030000002 .6386667 .040000004 .642 .050666669 .6406667 C .078 .6380001 .105333339 .63566669 .13266668 .6336667 C .16000001 .63233336 .18733335 .6316667 .21466668 .6316667 L .21466668 .6326667 C .21533335 .6333334 .2156667 .634 .21566668 .6346667 C .16166668 .6380001 .10766667 .64400008 .05366667 .6526667 C .052333338 .6526667 .051666667 .6536667 .05166667 .6556667 C .052333338 .65766677 .05333333 .65833339 .05466667 .6576667 C .12466667 .6536667 .19466667 .6523334 .26466669 .65366676 C .3346667 .65500006 .40433336 .6586667 .4736667 .6646667 C .479 .66600009 .48433338 .6666667 .4896667 .6666667 C .49500004 .66733339 .50000008 .66800007 .50466677 .6686667 C .50733336 .66866669 .51000007 .66866669 .5126667 .6686667 C .51600006 .6693334 .51900008 .6693334 .5216667 .6686667 C .52900007 .6700001 .5363334 .671 .5436667 .6716667 C .55166676 .6723334 .5593334 .67300006 .5666667 .6736667 C .5713334 .6743334 .57400009 .6716667 .57466676 .6656667 C .57600006 .66033336 .57400009 .657 .5686667 .6556667 C .56533339 .6556667 .563 .65533336 .5616667 .6546667 C .5643334 .65333339 .56633338 .652 .5676667 .6506667 C .57900008 .64400008 .5843334 .6333334 .58366677 .6186667 C .58366677 .6046667 .57766678 .595 .56566676 .5896667 M .12166667 .5126667 C .13900002 .5113334 .15666668 .5113334 .17466668 .5126667 C .15466668 .51466676 .13466667 .5173334 .11466667 .5206667 C .09466667 .5246667 .075 .5296667 .05566667 .5356667 C .06366667 .52833339 .07366667 .5226667 .08566667 .5186667 C .09766667 .51533338 .10966667 .5133334 .12166667 .5126667 Z "/>
</symbol>
<symbol id="font_14_25">
<path d="M .50633338 .34566669 L .50633338 .3426667 C .505 .3306667 .49933336 .32133336 .48933337 .3146667 C .48000003 .30866669 .46966673 .30633334 .45833338 .3076667 C .45766673 .283 .45633338 .25833334 .45433337 .23366668 C .45300005 .209 .45166669 .18433334 .45033337 .15966667 C .4496667 .147 .4486667 .13466667 .44733338 .12266667 C .446 .11066667 .4446667 .09866667 .44333337 .08666667 C .44200004 .076000008 .43966667 .06333334 .43633337 .048666669 C .433 .03466667 .42600004 .024666667 .41533337 .018666666 C .41533337 .018 .41500006 .017666666 .41433338 .017666666 C .41166673 .013666664 .40733338 .009999999 .40133337 .006666666 C .3926667 .001333333 .38400004 -.00000000062088176 .37533338 .0026666653 C .3666667 .0046666658 .3596667 .008999999 .35433338 .015666666 C .3496667 .020999998 .3466667 .027333333 .34533338 .034666666 C .344 .041999997 .34300003 .049 .34233336 .055666668 C .33900003 .095 .337 .13366668 .33633337 .17166667 C .3343334 .20966667 .33333338 .24800003 .33333338 .2866667 L .33333338 .3236667 C .33 .3236667 .32666669 .3236667 .32333336 .3236667 C .32000003 .3236667 .3166667 .3236667 .31333337 .3236667 C .2746667 .3236667 .23633336 .32266668 .19833334 .32066668 C .199 .30600003 .19933336 .29133336 .19933334 .27666668 C .2 .26266668 .20033334 .24833334 .20033334 .23366668 C .20033334 .21700001 .20033334 .20033334 .20033334 .18366668 C .20033334 .16700001 .19866668 .15066667 .19533333 .13466668 L .19533333 .13166666 C .19466667 .12766667 .19433336 .12333334 .19433335 .11866667 C .19433336 .11466667 .194 .11066667 .19333335 .10666667 C .19266667 .09800001 .191 .08866668 .18833333 .07866667 C .18633335 .068666677 .18233335 .060333339 .17633334 .053666668 C .16366667 .040999999 .14933335 .034333335 .13333334 .033666668 C .117333348 .032999997 .10466667 .041333334 .09533334 .05866667 C .094000007 .06133334 .09266668 .06366667 .09133334 .06566667 C .090666677 .068333338 .08966667 .071 .08833334 .07366667 C .08566668 .07366667 .08266667 .07466667 .07933334 .07666667 C .076666679 .078666668 .07533334 .08133333 .07533334 .08466667 C .072666678 .122 .07066667 .15933334 .06933334 .19666668 C .06800001 .23400001 .06666667 .27100004 .06533334 .3076667 L .055333336 .30366669 C .044 .29900003 .033333336 .29933334 .023333334 .30466668 C .013333333 .31066669 .0066666665 .31933335 .0033333335 .3306667 C -.00000000015522044 .342 .002333333 .35300002 .010333333 .36366669 C .014333334 .369 .019666667 .3746667 .026333334 .38066668 C .030333333 .38733337 .035333337 .3926667 .041333338 .39666669 C .048000006 .40066669 .055000005 .40400005 .062333336 .4066667 C .061666669 .4266667 .061 .44666673 .060333339 .4666667 C .060333339 .4873334 .059666668 .508 .058333335 .5286667 C .05766667 .55200007 .05666667 .5756667 .055333336 .5996667 C .05466667 .6236667 .05466667 .6473334 .055333336 .6706667 C .055333336 .672 .05566667 .6726667 .056333338 .67266669 C .05766667 .6726667 .058333335 .672 .058333335 .6706667 C .06366667 .6466667 .06733334 .62233337 .06933334 .59766677 C .07133334 .573 .07366667 .54833337 .07633334 .5236667 C .07833334 .50500008 .080333348 .48600004 .08233334 .4666667 C .08433334 .44800005 .086 .42933334 .087333347 .41066668 L .09033334 .4136667 L .09233334 .4136667 C .09166667 .45233337 .090666677 .49100004 .08933334 .52966669 C .08800001 .5683334 .08466668 .60666677 .07933334 .6446667 C .07800001 .6560001 .08100001 .6663334 .08833334 .6756667 C .09566667 .6850001 .10466667 .69033339 .11533334 .6916667 C .126 .693 .13633333 .69000008 .14633334 .68266668 C .15633334 .67599996 .16166668 .667 .16233334 .6556667 L .16233334 .65366676 C .16566667 .65366676 .16933334 .65266677 .17333333 .6506667 C .17866667 .6486667 .18233334 .644 .18433334 .63666668 C .18633335 .6293334 .18766666 .6233334 .18833333 .61866667 L .19133334 .5706667 C .19266667 .548 .194 .525 .19533333 .50166669 C .19733334 .479 .199 .45633338 .20033334 .43366669 L .20233335 .43366669 C .21966668 .43633334 .237 .43833337 .25433336 .4396667 C .27233336 .4416667 .29000003 .44333337 .30733336 .44466669 C .31266669 .44533337 .31800006 .446 .32333336 .4466667 C .3286667 .44733335 .33400003 .44800005 .33933337 .4486667 C .33866669 .46933333 .33766673 .49 .33633337 .5106667 C .33500005 .5313334 .33366669 .55200007 .33233337 .57266667 C .3296667 .59 .32833336 .6076667 .32833336 .62566676 C .32900004 .6443334 .33766673 .6593334 .35433338 .6706667 C .3696667 .6806667 .38633339 .685 .40433336 .6836667 C .42233337 .6823334 .4363334 .67300006 .44633339 .6556667 C .4556667 .64033338 .4606667 .62233337 .46133337 .6016667 C .462 .5816667 .46266667 .563 .46333338 .5456667 C .46400003 .5443334 .46400003 .54266676 .46333338 .5406667 C .46333338 .5393334 .46333338 .53800007 .46333338 .53666666 C .4646667 .5133333 .4646667 .48966668 .46333338 .46566669 L .46333338 .4436667 C .4673334 .443 .47133339 .442 .47533337 .44066669 C .47933338 .44000004 .4836667 .439 .48833338 .43766669 C .50166669 .43366669 .511 .426 .51633337 .41466669 C .5216667 .40333335 .5233334 .39133335 .52133336 .37866668 C .52000007 .36600004 .51500007 .35500003 .50633338 .34566669 M .23433334 .35066668 C .22900002 .35066668 .22333335 .35033334 .21733335 .34966669 C .21200001 .34966669 .20666667 .34966669 .20133335 .34966669 C .2 .347 .19866668 .34533335 .19733334 .3446667 L .19733334 .34066669 C .23666668 .3446667 .27533338 .3466667 .31333337 .3466667 C .3166667 .34600006 .32000003 .34566669 .32333336 .34566669 C .32733337 .34566669 .3306667 .34566669 .33333338 .34566669 L .33333338 .35066668 C .3166667 .35133336 .30000005 .3516667 .28333337 .3516667 C .26733337 .35233335 .25100003 .352 .23433334 .35066668 Z "/>
</symbol>
<symbol id="font_14_1">
<path d="M 0 0 Z "/>
</symbol>
<use xlink:href="#font_14_39" transform="matrix(14.872499,.000000000000000057637028,.000000000000000057637028,-14.872499,175.01992,236.49417)" fill="#d40000"/>
<use xlink:href="#font_14_40" transform="matrix(14.872499,.000000000000000057637028,.000000000000000057637028,-14.872499,183.61536,236.31075)" fill="#d40000"/>
<use xlink:href="#font_14_5b" transform="matrix(14.872499,.000000000000000057637028,.000000000000000057637028,-14.872499,190.01488,236.32067)" fill="#d40000"/>
<use xlink:href="#font_14_56" transform="matrix(14.872499,.000000000000000057637028,.000000000000000057637028,-14.872499,197.31653,236.31075)" fill="#d40000"/>
<use xlink:href="#font_14_25" transform="matrix(14.872499,.000000000000000057637028,.000000000000000057637028,-14.872499,205.93184,236.77179)" fill="#d40000"/>
<use xlink:href="#font_14_1" transform="matrix(14.872499,.000000000000000057637028,.000000000000000057637028,-14.872499,213.7441,236.30083)" fill="#d40000"/>
<g id="Layer-1" data-name="P">
</g>
<symbol id="font_14_e">
<path d="M .49300004 .38266669 C .5096667 .35733334 .5173333 .32766668 .516 .2936667 C .51533338 .25966669 .5113333 .22866668 .504 .20066668 C .49733339 .17533334 .4876667 .15033335 .47500003 .12566668 C .46233336 .10100001 .44533337 .08033334 .42400003 .06366667 C .39000003 .036333339 .35000003 .018000002 .30400003 .008666667 C .25866667 -.00000000031044088 .21500002 .004 .17300001 .020666669 C .13233334 .037333337 .09666667 .06266667 .06600001 .09666667 C .036000004 .13133334 .016333335 .17066668 .0070000009 .21466668 C .005000001 .22533335 .0033333339 .23600002 .0020000004 .24666669 C .0006666668 .25800003 0 .26900003 0 .2796667 C .0006666668 .31633339 .0053333339 .35200004 .014 .3866667 C .022666669 .42200003 .038333339 .45400004 .061 .4826667 C .07633334 .50266668 .094000007 .523 .11400001 .54366669 C .13466668 .5643334 .15533334 .582 .17600002 .5966667 C .19533335 .6106667 .21533335 .6236667 .23600002 .63566669 C .246 .64166668 .257 .64633336 .26900003 .64966669 C .28100003 .653 .293 .654 .305 .6526667 C .31566669 .652 .324 .6483333 .33 .64166668 C .336 .635 .33900003 .62733337 .33900003 .61866667 C .34233336 .61266669 .344 .6063333 .344 .59966668 C .344 .5936666 .34366668 .58699998 .34300003 .5796667 C .34233336 .57566669 .34200005 .56733337 .34200005 .55466666 C .34200005 .542 .34200005 .5276666 .34200005 .51166668 C .34200005 .49566666 .34200005 .48033337 .34200005 .46566669 C .34266673 .45166669 .34300003 .44066669 .34300003 .4326667 L .34600003 .3376667 C .34600006 .32900004 .34600006 .32033337 .34600003 .3116667 C .3466667 .30366669 .34733335 .29566667 .34800003 .28766669 C .34800003 .28100003 .34800003 .27400003 .34800003 .26666669 C .3486667 .26000003 .34833337 .25333337 .34700004 .24666669 C .34633336 .24400002 .34433333 .24200003 .34100003 .24066669 C .33833338 .23933335 .3356667 .23933335 .33300004 .24066669 C .3296667 .24333334 .32766668 .245 .32700003 .24566669 C .3256667 .245 .32433335 .24466668 .323 .24466668 C .3216667 .24533336 .32033337 .24566669 .31900005 .24566669 C .31233336 .24766667 .3066667 .25100003 .30200003 .25566668 C .298 .26033334 .29433338 .2656667 .291 .27166669 C .289 .275 .28733335 .27833335 .286 .2816667 C .28533338 .28500004 .28433336 .28800003 .28300003 .29066668 L .28000004 .29066668 L .28000004 .28766669 C .28333337 .27633337 .2886667 .26433335 .29600004 .25166667 C .30333338 .23966666 .31433336 .23500002 .32900004 .23766668 C .33633337 .23900002 .34133337 .23733336 .344 .23266669 C .34733335 .22800003 .34800006 .223 .34600003 .21766669 C .3446667 .21233337 .34033335 .20933335 .33300004 .20866668 C .32033337 .20733334 .3076667 .21033335 .29500003 .21766669 C .28300003 .22500003 .27433337 .23466669 .26900003 .24666669 C .26233337 .262 .25833334 .2776667 .257 .2936667 C .25633336 .31033338 .2556667 .32666669 .25500003 .3426667 L .24900002 .53566667 C .24700003 .5343333 .24500002 .5326667 .24300002 .53066667 C .24100001 .52933338 .2386667 .528 .23600002 .52666667 C .20200002 .5006667 .17533334 .47066669 .15600002 .4366667 C .13666667 .4026667 .123 .36433337 .115 .3216667 C .11433334 .31766669 .113666679 .31500004 .113000009 .31366668 C .113000009 .313 .113000009 .31100003 .113000009 .3076667 C .112333338 .30500005 .11200001 .30233336 .112 .29966668 C .11200001 .29700003 .11200001 .29433338 .112 .2916667 C .11133333 .2796667 .11200001 .268 .11400001 .2566667 C .116000007 .24533336 .11866667 .23400001 .12200001 .22266668 C .13133334 .19333335 .14533335 .16666669 .16400002 .14266669 C .18266668 .11866668 .20833336 .105666678 .24100001 .10366667 C .24300002 .10366667 .24500002 .10333333 .24700003 .102666679 C .24966669 .102666679 .252 .102666679 .254 .102666679 C .2926667 .10400001 .3256667 .116666678 .35300002 .14066668 C .36433337 .15133335 .37300004 .16233336 .37900005 .17366667 C .38833336 .18966668 .39433337 .20666667 .397 .22466669 C .3996667 .24333334 .4006667 .26133336 .40000005 .27866668 C .39933337 .28666667 .3986667 .29433335 .39800004 .30166669 C .39733336 .30966667 .39533339 .317 .39200003 .3236667 C .3853334 .33833338 .38333337 .35300002 .38600005 .3676667 C .38933338 .38300003 .39833335 .395 .41300003 .40366668 C .42700003 .41233335 .4416667 .41433335 .45700003 .4096667 C .47233335 .405 .48433338 .39600004 .49300004 .38266669 M .26900003 .54966667 C .26433338 .54566666 .25900004 .542 .25300003 .53866669 C .25433336 .522 .256 .50533339 .25800003 .48866669 C .26000003 .472 .2616667 .45533336 .263 .4386667 L .268 .4386667 C .26733337 .45733337 .26700003 .47566668 .26700003 .49366669 C .26700003 .51233336 .2676667 .53099998 .26900003 .54966667 M .39100004 .3256667 C .39100004 .32633338 .3906667 .32666669 .39000003 .32666669 L .39000003 .32766668 L .39000003 .32666669 C .3906667 .32666669 .39100004 .32633338 .39100004 .3256667 M .39200003 .3236667 C .39133335 .32433335 .39100004 .32500003 .39100004 .3256667 L .39100004 .32466669 C .39166669 .32466669 .39200006 .32433335 .39200003 .3236667 Z "/>
</symbol>
<symbol id="font_14_2">
<path d="M .36033336 .052333334 C .35633336 .05366667 .3516667 .06066667 .34633336 .07333334 C .3416667 .086 .33633337 .10166667 .33033336 .12033334 C .32500003 .13900002 .31966666 .15833335 .31433336 .17833334 C .30966667 .19833334 .30533336 .21633335 .30133335 .23233335 C .29733337 .24833335 .29466669 .26000003 .29333336 .26733334 L .21533335 .26633335 C .208 .23633336 .20166667 .20633336 .19633334 .17633336 C .191 .14700002 .18699999 .117000009 .18433334 .086333338 C .18433334 .08033334 .18133335 .07733334 .17533334 .07733334 C .17 .07733334 .16766668 .08033334 .16833334 .086333338 C .171 .116333339 .17466666 .14633334 .17933333 .17633336 C .18466668 .20700002 .19199999 .237 .20133335 .26633335 L .19233334 .26633335 C .18900001 .25433336 .18566667 .23966669 .18233334 .22233334 C .179 .20566668 .17566668 .18900001 .17233333 .17233335 C .16966667 .15633334 .16733332 .14266669 .16533333 .13133334 L .16233334 .11533333 L .15633333 .07033333 C .15433334 .04766667 .14666666 .03133333 .13333334 .021333334 C .120000008 .011333332 .105333339 .0073333329 .08933334 .009333333 C .07333334 .011333332 .059666668 .019 .048333337 .032333334 C .037666669 .045666666 .034000007 .064 .037333337 .08733334 C .041333338 .116666678 .046000005 .14600002 .051333339 .17533335 C .056666674 .20466669 .063 .23366668 .07033334 .26233334 C .065666679 .2616667 .061000006 .261 .056333338 .26033334 C .051666675 .26033334 .04733334 .26033334 .043333338 .26033334 C .044666668 .26366667 .045 .26666669 .044333336 .26933334 C .028333335 .27333335 .016666666 .282 .009333333 .29533334 C .0019999997 .30866669 -.00000000015522044 .32333336 .0033333335 .33933334 C .0066666665 .35599999 .016 .37100003 .031333336 .38433335 C .04666667 .39833335 .06933334 .40766669 .09933334 .41233335 C .10666668 .44566668 .11466667 .47833336 .12333334 .51033338 C .132 .543 .14266667 .5746667 .15533334 .6053333 C .16133334 .6186667 .168 .6330001 .17533334 .6483334 C .18266666 .66433337 .19166667 .67800006 .20233333 .6893334 C .21366668 .70133337 .22766666 .7073334 .24433333 .7073334 C .253 .708 .2616667 .7056667 .27033336 .70033338 C .279 .695 .28533335 .68833336 .28933335 .6803334 C .304 .6796667 .316 .67433336 .32533337 .66433337 C .33533336 .65500006 .341 .6423333 .34233336 .62633338 C .34366668 .6063333 .34533335 .586 .34733335 .56533339 C .34933333 .5453333 .35133336 .52566668 .35333336 .50633338 C .354 .5056667 .35466669 .50533339 .35533337 .50533339 C .35600005 .5226667 .35666669 .53966668 .35733334 .55633339 C .35866667 .57366666 .36033336 .5906667 .36233337 .60733339 C .3623334 .6100001 .3626667 .60400006 .36333335 .58933338 C .3646667 .5746667 .36600004 .5556667 .36733336 .5323334 C .36866669 .5096667 .37 .48666669 .37133334 .46333335 C .3726667 .44066669 .37433336 .42166666 .37633337 .40633334 C .3956667 .40433336 .41066668 .3976667 .42133335 .38633336 C .432 .3756667 .43866668 .363 .44133336 .34833334 C .444 .33433334 .44266669 .32033334 .43733336 .30633334 C .432 .29233334 .42233337 .281 .40833337 .27233333 C .41500006 .24300002 .42200003 .20966669 .42933337 .17233335 C .4366667 .13566667 .44233335 .10233334 .44633336 .072333339 C .44900004 .04966667 .44700004 .03266667 .44033335 .021333334 C .43433333 .009333332 .426 .0026666653 .41533337 .0013333317 C .40533338 -.0000000018626452 .395 .0036666652 .38433335 .012333333 C .37433336 .021 .36633338 .034333335 .36033336 .052333334 M .21233334 .39633335 C .21966668 .3976667 .22900002 .39833335 .24033334 .39833335 C .2523333 .39900003 .26166667 .39966668 .26833336 .40033335 C .267 .409 .26533333 .42133335 .26333336 .43733336 C .262 .45333336 .26000003 .47033335 .25733335 .48833335 C .25533334 .507 .25266669 .524 .24933335 .53933337 C .24133335 .51133337 .23433334 .48633338 .22833334 .46433337 C .22233333 .44233335 .21700001 .41966669 .21233334 .39633335 Z "/>
</symbol>
<symbol id="font_14_20">
<path d="M .44433335 .46133337 C .43566669 .4606667 .42733336 .46133337 .41933335 .46333338 C .41200004 .46533338 .4046667 .46833337 .39733336 .47233338 L .39433334 .47233338 C .39166669 .47300006 .388 .47333337 .38333337 .47333337 L .32033334 .47933338 C .299 .48133338 .27733336 .4836667 .25533334 .48633338 C .23333335 .489 .21166666 .49233333 .19033334 .49633337 C .18233335 .4976667 .17366667 .49933339 .16433333 .50133338 C .15499999 .50333335 .14533334 .5056667 .13533333 .5083333 C .13666667 .5016667 .139 .49133338 .14233333 .47733338 C .14633334 .46333338 .15 .45000006 .15333334 .43733336 C .15666667 .42466668 .15866667 .41633336 .15933334 .41233338 L .16033334 .41233338 C .17566668 .41366674 .19066668 .41466669 .20533334 .41533337 C .22000002 .416 .23466666 .41666667 .24933335 .41733337 C .278 .418 .30633334 .41766668 .33433334 .41633336 C .363 .4156667 .39166669 .4136667 .42033337 .41033338 C .43500004 .41033338 .44866667 .40600003 .46133334 .39733336 C .47466669 .38866667 .48333336 .377 .48733337 .36233337 C .49066673 .35033337 .49 .33766667 .48533336 .32433335 C .48066668 .31100003 .47300003 .30000005 .46233336 .29133336 C .45233334 .28266669 .44000004 .279 .42533336 .28033335 C .36333335 .28966669 .3006667 .2936667 .23733334 .29233337 C .22866667 .29233337 .21999999 .29233337 .21133334 .29233337 C .20333334 .29233337 .19500001 .29200004 .18633333 .29133336 C .19033332 .26666669 .194 .24200003 .19733334 .21733335 C .20066667 .1926667 .20266666 .16766668 .20333334 .14233335 C .204 .12633334 .204 .109000008 .20333334 .090333338 C .20266666 .072333339 .199 .055666668 .19233334 .040333339 C .18633335 .025 .17433334 .013333335 .15633333 .0053333339 C .14566668 .0006666668 .13433334 0 .12233334 .0033333335 C .110333349 .007333334 .102666679 .015666668 .09933334 .028333335 C .093333337 .049000008 .091 .07033334 .09233334 .09233334 C .09033334 .09833334 .08900001 .10466667 .08833334 .11133334 C .08766667 .11800001 .087000008 .123666677 .08633334 .12833335 C .08566668 .13833334 .08466667 .14800002 .083333339 .15733335 C .08200001 .16733335 .08066667 .177 .079333338 .18633335 C .078 .20366669 .07633334 .22100002 .07433334 .23833335 C .07233334 .25566668 .07033334 .27266667 .068333338 .28933335 C .060333339 .29133336 .052666669 .29466669 .045333338 .29933337 C .032 .3086667 .023 .3206667 .018333333 .33533336 C .013666667 .35066668 .015666666 .36566673 .024333334 .38033337 C .030333335 .39100004 .039333337 .39900003 .051333339 .40433336 C .04733334 .42700006 .043 .44933335 .038333339 .47133336 C .03366667 .49333335 .028000003 .515 .021333334 .5363333 C .018000002 .54566666 .018000002 .5546667 .021333334 .56333336 C .012666666 .57266667 .0066666665 .5833333 .0033333335 .59533336 C -.00000000015522044 .60733339 -.00000000015522044 .621 .0033333335 .63633337 C .0059999998 .64966669 .014666666 .6586667 .029333333 .66333338 C .044000005 .668 .056666674 .66566666 .06733334 .6563333 C .08666667 .65099999 .106000009 .64599999 .12533334 .64133337 C .14533334 .63666668 .165 .63199999 .18433334 .62733337 C .18633335 .6306667 .18866666 .632 .19133334 .63133338 C .24000001 .62200006 .28766669 .615 .33433334 .6103333 C .34633336 .609 .35833336 .60800006 .37033335 .60733339 C .38300003 .6066666 .39533333 .60566666 .40733335 .60433337 C .41733337 .6036667 .4276667 .60333338 .43833337 .60333338 C .449 .60400006 .45900003 .6026667 .46833337 .59933337 L .46933336 .59833338 C .48466669 .59166666 .49600003 .58 .50333335 .56333336 C .51066669 .5473333 .5116667 .5316667 .50633338 .51633337 C .5043333 .50033339 .49733333 .4873334 .48533336 .47733338 C .47333337 .46733336 .4596667 .462 .44433335 .46133337 M .083333339 .62733337 C .09133334 .624 .102666679 .62133339 .11733334 .6193333 C .13200002 .61800006 .14600002 .6166667 .15933334 .6153333 C .17266667 .61466667 .18066667 .614 .18333334 .61333337 L .19933334 .61333337 C .18066667 .6186667 .15933334 .6236667 .13533333 .62833335 C .11133333 .633 .09 .6386667 .07133334 .64533337 C .073333349 .6433334 .075333338 .64033338 .07733334 .63633337 C .080000009 .633 .08200001 .63000008 .083333339 .62733337 Z "/>
</symbol>
<use xlink:href="#font_14_e" transform="matrix(14.872499,.000000000000000057637028,.000000000000000057637028,-14.872499,216.54355,236.35536)" fill="#ffffff"/>
<use xlink:href="#font_14_2" transform="matrix(14.872499,.000000000000000057637028,.000000000000000057637028,-14.872499,224.52439,236.63298)" fill="#ffffff"/>
<use xlink:href="#font_14_20" transform="matrix(14.872499,.000000000000000057637028,.000000000000000057637028,-14.872499,231.49892,236.30579)" fill="#ffffff"/>
<use xlink:href="#font_14_17" transform="matrix(14.872499,.000000000000000057637028,.000000000000000057637028,-14.872499,239.37065,236.73709)" fill="#ffffff"/>
</g>
</g>
</svg>
